# xmcd
#
# Track frame offsets: 
#        150
#        13194
#        24460
#        40118
#        59317
#        73324
#        82701
#        93206
#        112447
#        132382
#        147922
#
# Disc length: 2096 seconds
#
# Revision: 0
# Processed by: cddbd v1.4PL0 Copyright (c) Steve Scherf et al.
# Submitted via: ExactAudioCopy v0.95a4
#
DISCID=97082e0b
DTITLE=K. C. Douglas - Deadbeat Guitar And The Mississippi Blues
DYEAR=1952
DGENRE=Blues
TTITLE0=Canned Heat
TTITLE1=Catfish
TTITLE2=Big Road Blues
TTITLE3=Kansas City
TTITLE4=I Got The Key (Key To The Highway)
TTITLE5=Casey Jones
TTITLE6=Mercury Blues
TTITLE7=Blues
TTITLE8=I Met The Blues This Morning
TTITLE9=I Have My Woman
TTITLE10=Had I Money
EXTD=
EXTT0=
EXTT1=
EXTT2=
EXTT3=
EXTT4=
EXTT5=
EXTT6=
EXTT7=
EXTT8=
EXTT9=
EXTT10=
PLAYORDER=
